<svg id="Layer_1" data-name="Layer 1" xmlns="http://www.w3.org/2000/svg" xmlns:xlink="http://www.w3.org/1999/xlink" viewBox="0 0 140 410"><defs><style>.cls-1{fill:#6554c0;}.cls-2{fill:#0065ff;}.cls-3{fill:#ffab00;}.cls-4{fill:url(#linear-gradient);}.cls-5{clip-path:url(#clip-path-2);}.cls-6{fill:#5243aa;}.cls-7{fill:#572000;}.cls-8{fill:#6a330d;}.cls-9{fill:url(#linear-gradient-2);}.cls-10{fill:url(#linear-gradient-3);}.cls-11{fill:url(#linear-gradient-4);}.cls-12{fill:#ffe2d9;}.cls-13{fill:#fff;}.cls-14{clip-path:url(#clip-path-3);}.cls-15{fill:#0c1f41;}.cls-16{fill:#4c9aff;}.cls-17{fill:url(#linear-gradient-5);}.cls-18{fill:url(#linear-gradient-6);}.cls-19{fill:url(#linear-gradient-7);}.cls-20{fill:#ffe1d7;}.cls-21{clip-path:url(#clip-path-4);}.cls-22{fill:#ffc400;}.cls-23{fill:url(#linear-gradient-8);}.cls-24{fill:#230f05;}.cls-25{fill:url(#linear-gradient-9);}.cls-26{fill:url(#linear-gradient-10);}.cls-27{fill:#9b7661;}.cls-28{fill:#57d9a3;}</style><linearGradient id="linear-gradient" x1="129.78" y1="157.02" x2="94.71" y2="173.37" gradientUnits="userSpaceOnUse"><stop offset="0" stop-color="#ffd740"/><stop offset="1" stop-color="#ffab00"/></linearGradient><clipPath id="clip-path"><path id="_Polygon_" data-name="&lt;Polygon&gt;" class="cls-4" d="M119.75,142.58l17.05,29.53a3.9,3.9,0,0,1-3.38,5.84H99.32A3.89,3.89,0,0,1,96,172.11l17-29.53A3.9,3.9,0,0,1,119.75,142.58Z"/></clipPath><clipPath id="clip-path-2"><circle class="cls-1" cx="60.49" cy="204.79" r="56.88"/></clipPath><linearGradient id="linear-gradient-2" x1="61.26" y1="222.26" x2="61.26" y2="258.14" gradientUnits="userSpaceOnUse"><stop offset="0" stop-color="#ebbeae"/><stop offset="0.64" stop-color="#ffe2d9"/></linearGradient><linearGradient id="linear-gradient-3" x1="31.86" y1="204.13" x2="44.1" y2="204.13" gradientUnits="userSpaceOnUse"><stop offset="0" stop-color="#ffe2d9"/><stop offset="1" stop-color="#ebbeae"/></linearGradient><linearGradient id="linear-gradient-4" x1="77.15" y1="204.13" x2="89.39" y2="204.13" gradientUnits="userSpaceOnUse"><stop offset="0" stop-color="#ebbeae"/><stop offset="1" stop-color="#ffe2d9"/></linearGradient><clipPath id="clip-path-3"><path id="_Polygon_2" data-name="&lt;Polygon&gt;" class="cls-2" d="M117.46,61.2V60A55.64,55.64,0,0,0,89.63,11.85l-1-.59a55.65,55.65,0,0,0-55.65,0l-1,.59A55.64,55.64,0,0,0,4.14,60V61.2A55.65,55.65,0,0,0,32,109.4l1,.58a55.65,55.65,0,0,0,55.65,0l1-.58A55.65,55.65,0,0,0,117.46,61.2Z"/></clipPath><linearGradient id="linear-gradient-5" x1="62.14" y1="79.52" x2="62.14" y2="104.38" gradientUnits="userSpaceOnUse"><stop offset="0" stop-color="#ebbdac"/><stop offset="1" stop-color="#ffe1d7"/></linearGradient><linearGradient id="linear-gradient-6" x1="45.02" y1="60.65" x2="34.12" y2="60.65" xlink:href="#linear-gradient-5"/><linearGradient id="linear-gradient-7" x1="79.12" y1="60.47" x2="88.92" y2="60.78" xlink:href="#linear-gradient-5"/><clipPath id="clip-path-4"><circle class="cls-3" cx="61.41" cy="348.1" r="56.12"/></clipPath><linearGradient id="linear-gradient-8" x1="61.41" y1="397.29" x2="61.41" y2="366.47" gradientUnits="userSpaceOnUse"><stop offset="0" stop-color="#9b7661"/><stop offset="0.43" stop-color="#997460"/><stop offset="0.64" stop-color="#916f5b"/><stop offset="0.79" stop-color="#856553"/><stop offset="0.92" stop-color="#735747"/><stop offset="1" stop-color="#624a3d"/></linearGradient><linearGradient id="linear-gradient-9" x1="31.61" y1="348.81" x2="43.44" y2="348.81" gradientTransform="translate(86.6 1.44) rotate(14.18)" gradientUnits="userSpaceOnUse"><stop offset="0" stop-color="#9b7661"/><stop offset="0.45" stop-color="#846452"/><stop offset="1" stop-color="#624a3d"/></linearGradient><linearGradient id="linear-gradient-10" x1="79.67" y1="348.81" x2="91.51" y2="348.81" gradientTransform="translate(402.8 180.37) rotate(75.82)" gradientUnits="userSpaceOnUse"><stop offset="0" stop-color="#624a3d"/><stop offset="0.55" stop-color="#846452"/><stop offset="1" stop-color="#9b7661"/></linearGradient></defs><title>Meeples Desktop All@2x</title><circle class="cls-1" cx="60.49" cy="204.79" r="56.88"/><g class="cls-5"><polygon class="cls-6" points="42.42 232.82 82.18 233.46 81.41 241.1 43.04 240.89 42.42 232.82"/><circle class="cls-7" cx="59.78" cy="166.77" r="13.77"/><path class="cls-8" d="M89.33,190.81c0-14.62-12.73-26.48-28.42-26.48s-28.43,11.86-28.43,26.48v5.79c0,14.63,12.73,26.48,28.43,26.48s28.42-11.85,28.42-26.48Z"/><path class="cls-6" d="M79.45,240l-17.34-.9-17.35.9a1.78,1.78,0,0,0-.93.31L28.08,250.7l-.58.43A56.89,56.89,0,0,0,95,250L80.38,240.3A1.78,1.78,0,0,0,79.45,240Z"/><path class="cls-9" d="M74.26,245.27l-12,13L49.23,245a6.45,6.45,0,0,1-.95-7.72,11.23,11.23,0,0,0,1.3-3.34c1.23-6.12-2.81-10.71-3.28-11.24l29.93-1.12a15.52,15.52,0,0,0-2.15,12.06,12.75,12.75,0,0,0,1.2,2.9A7.54,7.54,0,0,1,74.26,245.27Z"/><circle class="cls-10" cx="37.98" cy="204.13" r="6.12"/><path class="cls-6" d="M41.37,220.88a7.33,7.33,0,0,1-5.48-12.21,1.11,1.11,0,0,1,1.58-.1,1.13,1.13,0,0,1,.1,1.59,5.1,5.1,0,1,0,7.19-.42,1.13,1.13,0,0,1-.09-1.59,1.12,1.12,0,0,1,1.58-.09,7.34,7.34,0,0,1-4.88,12.82Z"/><circle class="cls-11" cx="83.27" cy="204.13" r="6.12"/><path class="cls-6" d="M80.31,220.88h-.44a7.35,7.35,0,0,1-6.9-7.75,7.33,7.33,0,0,1,2.45-5.06,1.12,1.12,0,1,1,1.49,1.68,5.1,5.1,0,1,0,8.48,4.1,5,5,0,0,0-1.28-3.68,1.12,1.12,0,1,1,1.68-1.49,7.33,7.33,0,0,1-5.48,12.21Z"/><path id="_Clipping_Path_" data-name="&lt;Clipping Path&gt;" class="cls-12" d="M85.46,201.82c-.53,13.13-11,28.24-24.73,28.24S36.49,215,36,201.82c-.59-14.54,5.82-30.9,24.75-30.9S86.05,187.28,85.46,201.82Z"/><path class="cls-8" d="M61,164.71c-13.8,0-25.27,11.48-27.71,26.65H88.68C86.24,176.19,74.77,164.71,61,164.71Z"/><path class="cls-8" d="M87.77,184.8c3.46,9.62,2.51,13.46.89,15.16a11.8,11.8,0,0,0-2.42,2.79,11.67,11.67,0,0,0-1.34,6.4c.15,2.49.77,2.48.78,4.26,0,2.42-1.61,3.44-2.78,5.85a13.64,13.64,0,0,0-.92,8.15c-.13-.77-1-1.75-1.27-2.54a12.23,12.23,0,0,1-.67-3.05,13.93,13.93,0,0,1,1.07-6.07c.76-2.07.19-3.48-.12-5.53-.27-1.75.29-3.42.62-5.13.57-3-.51-5.69-2.13-8.14-.91-1.95-1.62-5-.6-9.84Z"/><path class="cls-8" d="M34,184.8c-3.46,9.62-2.51,13.46-.89,15.16a11.58,11.58,0,0,1,2.42,2.79,11.67,11.67,0,0,1,1.34,6.4c-.15,2.49-.77,2.48-.78,4.26,0,2.42,1.61,3.44,2.78,5.85a13.64,13.64,0,0,1,.92,8.15c.13-.77,1-1.75,1.27-2.54a12.23,12.23,0,0,0,.67-3.05,13.79,13.79,0,0,0-1.07-6.07c-.76-2.07-.19-3.48.12-5.53.27-1.75-.29-3.42-.62-5.13-.57-3,.51-5.69,2.14-8.14.9-1.95,1.61-5,.59-9.84Z"/></g><path class="cls-13" d="M60.49,147.69A56.88,56.88,0,1,1,3.62,204.57a56.89,56.89,0,0,1,56.87-56.88m0-4a60.88,60.88,0,1,0,60.88,60.88,60.95,60.95,0,0,0-60.88-60.88Z"/><path id="_Polygon_3" data-name="&lt;Polygon&gt;" class="cls-2" d="M117.46,61.2V60A55.64,55.64,0,0,0,89.63,11.85l-1-.59a55.65,55.65,0,0,0-55.65,0l-1,.59A55.64,55.64,0,0,0,4.14,60V61.2A55.65,55.65,0,0,0,32,109.4l1,.58a55.65,55.65,0,0,0,55.65,0l1-.58A55.65,55.65,0,0,0,117.46,61.2Z"/><g class="cls-14"><path class="cls-15" d="M30.92,41c-1,1.85-7.75,15.51-1.25,30.64.88,2,6.31,14.14,20.2,19.18a35.38,35.38,0,0,0,23.77,0c13.79-5,19.38-16.85,20.46-19.3,6.48-14.7.63-28.25-.38-30.48L62.11,32.17Z"/><path class="cls-16" d="M79.5,95.18l-17.36-.9-17.36.9a1.94,1.94,0,0,0-.94.31L28.09,105.9a6.92,6.92,0,0,0-.69.52,56.66,56.66,0,0,0,68.1-1l-15.07-10A1.91,1.91,0,0,0,79.5,95.18Z"/><path class="cls-17" d="M78.46,95.93c-.39.53-7,9.37-18,8.52-8.88-.69-13.89-7.22-14.64-8.23a12,12,0,0,0,4.44-6.73c1.31-5.63-2.26-10-2.68-10.46H75.33c-.2.26-4.27,5.92-1.69,11.76A11.09,11.09,0,0,0,78.46,95.93Z"/><circle class="cls-18" cx="39.39" cy="60.65" r="6.12"/><circle class="cls-19" cx="84.72" cy="60.65" r="6.12"/><path class="cls-15" d="M41,48.34q0,4.23-.21,8.09c-.13,2.58-.17,2.18-.3,4.63-.36,6.87,0,8.65-1.47,10.31-.94,1.07-2.42,1.85-3,1.46s.27-2,.62-4.47a30.45,30.45,0,0,0-1.3-12.56,10.2,10.2,0,0,1-.85-4.18c0-1.09.15-3.41,1.81-4.3C37.62,46.61,39.51,47,41,48.34Z"/><path class="cls-15" d="M88,48.34c0,2.82-.09,5.52-.22,8.09s-.16,2.18-.29,4.63c-.36,6.87,0,8.65-1.48,10.31-.93,1.07-2.41,1.85-3,1.46s.28-2,.62-4.47a30.26,30.26,0,0,0-1.3-12.56,10.54,10.54,0,0,1-.85-4.18c0-1.09.16-3.41,1.81-4.3C84.61,46.61,86.5,47,88,48.34Z"/><path id="_Clipping_Path_2" data-name="&lt;Clipping Path&gt;" class="cls-20" d="M86.91,58.34C86.38,71.48,72.73,86.6,62.16,86.6S37.9,71.5,37.37,58.34c-.59-14.56,10.34-30.93,24.77-30.93S87.5,43.79,86.91,58.34Z"/><circle class="cls-2" cx="35.77" cy="64.05" r="0.7"/><circle class="cls-2" cx="88.67" cy="64.05" r="0.7"/><path class="cls-15" d="M44.42,16.58a31.7,31.7,0,0,1,44,8.71C91,29.13,92.92,35.61,93.72,41c.21,1.42.2,3.13.26,4.26-17.36.83-28,1-31.84-11.61-6.56,13.19-17.47,13-31.73,11.63C31,35.75,35.86,22.3,44.42,16.58Z"/></g><path class="cls-13" d="M60.8,4A56.66,56.66,0,1,1,4.14,60.62,56.66,56.66,0,0,1,60.8,4m0-4a60.64,60.64,0,1,0,60.64,60.64A60.7,60.7,0,0,0,60.8,0Z"/><circle class="cls-3" cx="61.41" cy="348.1" r="56.12"/><g class="cls-21"><path class="cls-22" d="M96.19,392.14l-12.66-7.06a2.23,2.23,0,0,0-1.12-.37l-21-1.09-21,1.09a2.23,2.23,0,0,0-1.12.37l-12.66,7.06a56.12,56.12,0,0,0,69.57,0Z"/><path class="cls-23" d="M81.14,386.91c-.46.64-8.51,11.34-21.77,10.31-10.74-.84-16.79-8.73-17.7-10A14.4,14.4,0,0,0,47,379.12c1.58-6.81-2.74-12.05-3.25-12.65H77.36c-.24.31-5.17,7.16-2,14.23A13.45,13.45,0,0,0,81.14,386.91Z"/><path class="cls-24" d="M32,336.25c0-1.16,1-2.22,1.22-3.37s-.42-2.46-.1-3.58,1.52-1.93,2-3,.14-2.5.69-3.52,1.91-1.55,2.57-2.51.68-2.4,1.44-3.28,2.19-1.1,3.05-1.88,1.19-2.2,2.13-2.88,2.39-.57,3.4-1.13,1.68-1.85,2.76-2.29,2.45,0,3.58-.26,2.08-1.37,3.24-1.52,2.35.66,3.53.66,2.39-.8,3.52-.66,2.14,1.23,3.25,1.52,2.5-.17,3.57.26,1.75,1.73,2.76,2.29,2.46.45,3.4,1.13,1.28,2.09,2.14,2.88,2.29,1,3,1.88.77,2.33,1.43,3.29,2,1.48,2.57,2.5.25,2.44.69,3.52,1.64,1.88,2,3-.29,2.44-.11,3.58,1.18,2.21,1.23,3.37-.86,2.44-1,3.66.59,2.56.34,3.76-1.42,2.15-1.81,3.32,0,2.62-.56,3.73-1.87,1.77-2.52,2.81-.63,2.56-1.39,3.52-2.23,1.29-3.1,2.16-1.2,2.33-2.17,3.09-2.47.73-3.52,1.35-1.75,2-2.88,2.46-2.56.06-3.75.4-2.19,1.43-3.42,1.6-2.48-.63-3.73-.63-2.52.79-3.72.63-2.25-1.28-3.42-1.61-2.64.09-3.76-.4-1.82-1.82-2.87-2.45-2.56-.6-3.52-1.35-1.31-2.23-2.17-3.09S39.6,358,38.84,357s-.75-2.46-1.39-3.51-2-1.7-2.52-2.81-.17-2.57-.56-3.74-1.56-2.11-1.81-3.31.44-2.54.34-3.76S31.89,337.48,32,336.25Z"/><ellipse class="cls-25" cx="37.52" cy="348.81" rx="5.82" ry="7.24" transform="translate(-84.31 19.82) rotate(-14.18)"/><ellipse class="cls-26" cx="85.59" cy="348.81" rx="7.24" ry="5.82" transform="translate(-273.56 346.34) rotate(-75.82)"/><path id="_Clipping_Path_3" data-name="&lt;Clipping Path&gt;" class="cls-27" d="M61.35,312.2c12.15.07,19.54,8.29,20.69,9.6,7.7,8.87,6.89,19.41,6.71,21.64-.42,5.46-2.62,9.8-6.85,18.58a120.38,120.38,0,0,1-6.48,11.74,6.9,6.9,0,0,1-2.73,2.49,27.09,27.09,0,0,1-11.34,3,27,27,0,0,1-11.33-3,7,7,0,0,1-2.74-2.49A122.54,122.54,0,0,1,40.8,362c-4.22-8.78-6.43-13.12-6.85-18.58-.17-2.23-1-12.77,6.72-21.64C41.81,320.49,49.21,312.27,61.35,312.2Z"/><path class="cls-24" d="M60.76,327c1.74,0,3.45.63,4.91.26,1.69-.43,2.9-1.87,4.26-2.49,1.66-.76,3.46-.73,4.74-1.28,1.81-.78,3.39-1.85,4.69-.88.9.66.54,2,.74,3.17.15.92,1.09,1.84,1.24,3,.13,1-.57,2.18-.22,3.3.29.92,1.51,1.54,2.08,2.56.45.79.2,2,.73,2.68s1.82.75,2.44,1.32.79,1.87,1.47,2.36,1.76.19,2.47.58a19.79,19.79,0,0,0,.06-7c-.35-2.15-1.82-4.36-2.83-6.88-.86-2.14-1.25-4.77-2.81-6.88-1.38-1.86-3.72-3-5.79-4.65-1.81-1.41-3.21-3.26-5-4.1-2.1-.94-4.44-.71-6.41-1.09-2.34-.46-4.45-1.47-6.33-1.43a15.58,15.58,0,0,0-6.26,1.7,15.13,15.13,0,0,0-6,1.4c-1.57.82-2.85,2.65-4.61,4.06-1.47,1.19-3.57,2-4.94,3.65-1.2,1.49-1.57,3.67-2.54,5.6-.63,1.26-2,2.17-2.38,3.38s.09,2.9-.15,4.14c-.27,1.45-1.3,2.69-1.37,3.9-.09,1.66.63,2.67.71,3.66.71-.56,1.57-.49,2.33-1.24s.66-2,1.3-2.8,1.88-1.09,2.37-2,.07-2.1.41-3.06c.28-.78,1.34-1.25,1.48-1.91.18-.82-.61-1.69-.55-2.34.09-.86,1-1.47,1.13-2.1s-.33-1.82.29-2.35c1.19-1,2.79,0,4.63.7,1.26.48,3,.35,4.69,1,1.35.56,2.58,1.95,4.22,2.33C57.4,327.71,59.06,327,60.76,327Z"/><path class="cls-24" d="M87.75,337.33l-1.55,6.9a4.4,4.4,0,0,0,1.55,4.5h0a50.3,50.3,0,0,0,2-6.17C90.07,340.56,87.75,337.33,87.75,337.33Z"/><path class="cls-24" d="M34.79,337.33l1.46,6.9a4.55,4.55,0,0,1-1.46,4.5h0A52.55,52.55,0,0,1,33,342.56C32.6,340.56,34.79,337.33,34.79,337.33Z"/></g><path class="cls-13" d="M61.41,292A56.12,56.12,0,1,1,5.29,348.1,56.11,56.11,0,0,1,61.41,292m0-3.95a60.07,60.07,0,1,0,60.06,60.06A60.13,60.13,0,0,0,61.41,288Z"/><path id="_Polygon_4" data-name="&lt;Polygon&gt;" class="cls-4" d="M119.75,142.58l17.05,29.53a3.9,3.9,0,0,1-3.38,5.84H99.32A3.89,3.89,0,0,1,96,172.11l17-29.53A3.9,3.9,0,0,1,119.75,142.58Z"/><path class="cls-13" d="M117.8,164l.74-11.38a2.36,2.36,0,0,0-2.35-2.51h0a2.36,2.36,0,0,0-2.35,2.51l.74,11.38a1.61,1.61,0,0,0,1.61,1.51h0A1.61,1.61,0,0,0,117.8,164Z"/><path class="cls-13" d="M113.74,170.06a2.45,2.45,0,0,0,2.67,2.46,2.48,2.48,0,0,0-.23-5A2.48,2.48,0,0,0,113.74,170.06Z"/><circle class="cls-13" cx="117.38" cy="21.11" r="17.65"/><circle class="cls-13" cx="117.38" cy="309.83" r="17.65"/><path class="cls-28" d="M137.54,312.66a21.31,21.31,0,1,1-17-24.85,21.31,21.31,0,0,1,17,24.85Zm-24.83,5.87,17.11-13.23A.91.91,0,0,0,130,304h0l-2.92-3.78a.9.9,0,0,0-1.26-.16h0l-12.64,9.78-3.84-4.93a.9.9,0,0,0-1.26-.16h0l-3.77,2.91a.92.92,0,0,0-.16,1.27h0l7.32,9.4a.89.89,0,0,0,1.26.16Z"/><path class="cls-28" d="M137.54,26.21a21.31,21.31,0,1,1-17-24.85,21.3,21.3,0,0,1,17,24.85Zm-24.83,5.87,17.11-13.23a.91.91,0,0,0,.17-1.27h0l-2.92-3.77a.89.89,0,0,0-1.26-.16h0l-12.64,9.77-3.84-4.92a.89.89,0,0,0-1.26-.16h0l-3.77,2.92a.9.9,0,0,0-.16,1.26h0l7.32,9.4a.9.9,0,0,0,1.26.17Z"/></svg>