<?xml version="1.0" encoding="utf-8"?>
<!-- Generator: Adobe Illustrator 23.0.2, SVG Export Plug-In . SVG Version: 6.00 Build 0)  -->
<svg version="1.1" id="Layer_1" xmlns:sketch="http://www.bohemiancoding.com/sketch/ns"
	 xmlns="http://www.w3.org/2000/svg" xmlns:xlink="http://www.w3.org/1999/xlink" x="0px" y="0px" viewBox="0 0 579 126"
	 style="enable-background:new 0 0 579 126;" xml:space="preserve">
<style type="text/css">
	.st0{fill-rule:evenodd;clip-rule:evenodd;fill:#253858;}
</style>
<title>Imported Layers</title>
<desc>Created with Sketch.</desc>
<g id="Page-1" sketch:type="MSPage">
	<g id="Imported-Layers" sketch:type="MSLayerGroup">
		<path id="Fill-1" sketch:type="MSShapeGroup" class="st0" d="M37.8,125.9c-18.9,0-37.4-13.6-37.4-44.3c0-30.8,18.5-44.2,37.4-44.2
			c9.3,0,16.6,2.4,21.8,5.8l-5.7,12.5c-3.5-2.5-8.7-4.1-13.9-4.1c-11.4,0-21.8,9-21.8,29.8s10.7,30,21.8,30c5.2,0,10.4-1.6,13.9-4.1
			l5.7,12.8C54.2,123.7,47.1,125.9,37.8,125.9"/>
		<path id="Fill-2" sketch:type="MSShapeGroup" class="st0" d="M102.9,125.9c-24.1,0-37.4-19.1-37.4-44.3
			c0-25.2,13.2-44.2,37.4-44.2c24.1,0,37.4,18.9,37.4,44.2C140.3,106.8,127,125.9,102.9,125.9L102.9,125.9z M102.9,51.1
			c-13.4,0-20,12-20,30.3c0,18.3,6.6,30.4,20,30.4c13.4,0,20-12.1,20-30.4C122.9,63.1,116.3,51.1,102.9,51.1L102.9,51.1z"/>
		<path id="Fill-3" sketch:type="MSShapeGroup" class="st0" d="M163.5,23.7c-5.7,0-10.3-4.4-10.3-9.8s4.6-9.8,10.3-9.8
			c5.7,0,10.3,4.4,10.3,9.8S169.1,23.7,163.5,23.7L163.5,23.7z M154.8,39.1h17.4v85h-17.4V39.1z"/>
		<path id="Fill-4" sketch:type="MSShapeGroup" class="st0" d="M240.4,124.1V67.4c0-9.9-6-16.1-17.8-16.1c-6.3,0-12.1,1.1-15.6,2.5
			v70.4h-17.2V43.4c8.5-3.5,19.4-6,32.7-6c23.8,0,35.3,10.4,35.3,28.4v58.4H240.4"/>
		<path id="Fill-5" sketch:type="MSShapeGroup" class="st0" d="M303.5,125.9c-11,0-21.9-2.7-28.6-6V0.3h17.2v41
			c4.1-1.9,10.7-3.5,16.6-3.5c21.9,0,36.8,15.8,36.8,41.8C345.5,111.7,328.9,125.9,303.5,125.9L303.5,125.9z M305.7,51.3
			c-4.7,0-10.3,1.1-13.6,2.8v55.8c2.5,1.1,7.4,2.2,12.3,2.2c13.7,0,23.8-9.5,23.8-31.2C328.3,62.3,319.5,51.3,305.7,51.3L305.7,51.3
			z"/>
		<path id="Fill-6" sketch:type="MSShapeGroup" class="st0" d="M392.3,125.9c-24.4,0-36.8-9.9-36.8-26.7c0-23.7,25.2-27.9,50.9-29.3
			v-5.4c0-10.7-7.1-14.5-18-14.5c-8,0-17.8,2.5-23.5,5.2l-4.4-11.8c6.8-3,18.3-6,29.7-6c20.3,0,32.7,7.9,32.7,28.9v53.6
			C416.8,123.2,404.3,125.9,392.3,125.9L392.3,125.9z M406.5,81.4c-17.4,0.9-34.7,2.4-34.7,17.5c0,9,6.9,14.5,20,14.5
			c5.5,0,12-0.9,14.7-2.2V81.4L406.5,81.4z"/>
		<path id="Fill-7" sketch:type="MSShapeGroup" class="st0" d="M461.7,125.9c-9.9,0-20.3-2.7-26.5-6l5.8-13.2
			c4.4,2.7,13.7,5.5,20.2,5.5c9.3,0,15.5-4.6,15.5-11.7c0-7.7-6.5-10.7-15.1-13.9c-11.4-4.3-24.1-9.5-24.1-25.4
			c0-14,10.9-23.8,29.8-23.8c10.3,0,18.8,2.5,24.8,6l-5.4,12c-3.8-2.4-11.4-5-17.5-5c-9,0-14,4.7-14,10.9c0,7.7,6.3,10.4,14.7,13.6
			c11.8,4.4,24.9,9.3,24.9,25.9C494.7,115.9,483,125.9,461.7,125.9"/>
		<path id="Fill-8" sketch:type="MSShapeGroup" class="st0" d="M578.6,81.2l-56.5,7.9c1.7,15.3,11.7,23,26,23
			c8.5,0,17.7-2.1,23.5-5.2l5,12.9c-6.6,3.5-18,6-29.7,6c-26.8,0-41.8-17.2-41.8-44.3c0-26,14.5-44.2,38.3-44.2
			c22.1,0,35.2,14.5,35.2,37.4C578.8,76.8,578.8,79,578.6,81.2L578.6,81.2z M543.3,50c-13.2,0-21.9,10.1-22.2,27.8l41.2-5.7
			C562.1,57.3,554.6,50,543.3,50L543.3,50z"/>
	</g>
</g>
</svg>
