<svg id="Layer_1" data-name="Layer 1" xmlns="http://www.w3.org/2000/svg" xmlns:xlink="http://www.w3.org/1999/xlink" viewBox="0 0 260 89.5"><defs><style>.cls-1{fill:#6554c0;}.cls-2{fill:#0065ff;}.cls-3{fill:#ffab00;}.cls-4{fill:url(#linear-gradient);}.cls-5{clip-path:url(#clip-path-2);}.cls-6{fill:#5243aa;}.cls-7{fill:#572000;}.cls-8{fill:#6a330d;}.cls-9{fill:url(#linear-gradient-2);}.cls-10{fill:url(#linear-gradient-3);}.cls-11{fill:url(#linear-gradient-4);}.cls-12{fill:#ffe2d9;}.cls-13{fill:#fff;}.cls-14{clip-path:url(#clip-path-3);}.cls-15{fill:#0c1f41;}.cls-16{fill:#4c9aff;}.cls-17{fill:url(#linear-gradient-5);}.cls-18{fill:url(#linear-gradient-6);}.cls-19{fill:url(#linear-gradient-7);}.cls-20{fill:#ffe1d7;}.cls-21{clip-path:url(#clip-path-4);}.cls-22{fill:#ffc400;}.cls-23{fill:url(#linear-gradient-8);}.cls-24{fill:#230f05;}.cls-25{fill:url(#linear-gradient-9);}.cls-26{fill:url(#linear-gradient-10);}.cls-27{fill:#9b7661;}.cls-28{fill:#57d9a3;}</style><linearGradient id="linear-gradient" x1="165.79" y1="17.67" x2="145.05" y2="27.34" gradientUnits="userSpaceOnUse"><stop offset="0" stop-color="#ffd740"/><stop offset="1" stop-color="#ffab00"/></linearGradient><clipPath id="clip-path"><path id="_Polygon_" data-name="&lt;Polygon&gt;" class="cls-4" d="M159.86,9.13l10.08,17.46a2.3,2.3,0,0,1-2,3.46H147.78a2.3,2.3,0,0,1-2-3.46L155.87,9.13A2.3,2.3,0,0,1,159.86,9.13Z"/></clipPath><clipPath id="clip-path-2"><circle class="cls-1" cx="124.82" cy="45.92" r="33.64"/></clipPath><linearGradient id="linear-gradient-2" x1="125.27" y1="56.25" x2="125.27" y2="77.47" gradientUnits="userSpaceOnUse"><stop offset="0" stop-color="#ebbeae"/><stop offset="0.64" stop-color="#ffe2d9"/></linearGradient><linearGradient id="linear-gradient-3" x1="107.89" y1="45.53" x2="115.12" y2="45.53" gradientUnits="userSpaceOnUse"><stop offset="0" stop-color="#ffe2d9"/><stop offset="1" stop-color="#ebbeae"/></linearGradient><linearGradient id="linear-gradient-4" x1="134.67" y1="45.53" x2="141.91" y2="45.53" gradientUnits="userSpaceOnUse"><stop offset="0" stop-color="#ebbeae"/><stop offset="1" stop-color="#ffe2d9"/></linearGradient><clipPath id="clip-path-3"><path id="_Polygon_2" data-name="&lt;Polygon&gt;" class="cls-2" d="M75,46.3v-.69a32.9,32.9,0,0,0-16.46-28.5L58,16.76a32.9,32.9,0,0,0-32.91,0l-.6.35A32.91,32.91,0,0,0,8,45.61v.69A32.91,32.91,0,0,0,24.44,74.8l.6.34a32.9,32.9,0,0,0,32.91,0l.59-.34A32.9,32.9,0,0,0,75,46.3Z"/></clipPath><linearGradient id="linear-gradient-5" x1="42.28" y1="57.13" x2="42.28" y2="71.83" gradientUnits="userSpaceOnUse"><stop offset="0" stop-color="#ebbdac"/><stop offset="1" stop-color="#ffe1d7"/></linearGradient><linearGradient id="linear-gradient-6" x1="32.16" y1="45.97" x2="25.72" y2="45.97" xlink:href="#linear-gradient-5"/><linearGradient id="linear-gradient-7" x1="52.32" y1="45.86" x2="58.12" y2="46.05" xlink:href="#linear-gradient-5"/><clipPath id="clip-path-4"><circle class="cls-3" cx="208.27" cy="45.97" r="33.19"/></clipPath><linearGradient id="linear-gradient-8" x1="208.27" y1="75.06" x2="208.27" y2="56.83" gradientUnits="userSpaceOnUse"><stop offset="0" stop-color="#9b7661"/><stop offset="0.43" stop-color="#997460"/><stop offset="0.64" stop-color="#916f5b"/><stop offset="0.79" stop-color="#856553"/><stop offset="0.92" stop-color="#735747"/><stop offset="1" stop-color="#624a3d"/></linearGradient><linearGradient id="linear-gradient-9" x1="190.65" y1="46.39" x2="197.65" y2="46.39" gradientTransform="translate(17.28 -46.15) rotate(14.18)" gradientUnits="userSpaceOnUse"><stop offset="0" stop-color="#9b7661"/><stop offset="0.45" stop-color="#846452"/><stop offset="1" stop-color="#624a3d"/></linearGradient><linearGradient id="linear-gradient-10" x1="219.08" y1="46.39" x2="226.07" y2="46.39" gradientTransform="translate(213.02 -180.77) rotate(75.82)" gradientUnits="userSpaceOnUse"><stop offset="0" stop-color="#624a3d"/><stop offset="0.55" stop-color="#846452"/><stop offset="1" stop-color="#9b7661"/></linearGradient></defs><title>Meeples Mobile All@2x</title><circle class="cls-1" cx="124.82" cy="45.92" r="33.64"/><g class="cls-5"><polygon class="cls-6" points="114.13 62.49 137.65 62.87 137.19 67.39 114.5 67.26 114.13 62.49"/><circle class="cls-7" cx="124.4" cy="23.43" r="8.14"/><path class="cls-8" d="M141.87,37.65C141.87,29,134.35,22,125.06,22s-16.81,7-16.81,15.66v3.43c0,8.64,7.53,15.65,16.81,15.65s16.81-7,16.81-15.65Z"/><path class="cls-6" d="M136,66.73l-10.26-.53-10.26.53a1.23,1.23,0,0,0-.55.18l-9.31,6.16-.34.25a33.66,33.66,0,0,0,39.94-.68l-8.67-5.73A1.16,1.16,0,0,0,136,66.73Z"/><path class="cls-9" d="M133,69.85l-7.07,7.72-7.73-7.88a3.81,3.81,0,0,1-.56-4.57,7,7,0,0,0,.77-2,8,8,0,0,0-2-6.65l17.7-.66A9.23,9.23,0,0,0,132.86,63a7.32,7.32,0,0,0,.7,1.71A4.44,4.44,0,0,1,133,69.85Z"/><circle class="cls-10" cx="111.51" cy="45.53" r="3.62"/><path class="cls-6" d="M113.51,55.43a4.33,4.33,0,0,1-3.24-7.22.66.66,0,0,1,.94-.06.67.67,0,0,1,.05.94,3,3,0,1,0,5.26,1.83,3,3,0,0,0-1-2.08.66.66,0,0,1-.06-.94.67.67,0,0,1,.94,0,4.34,4.34,0,0,1-2.89,7.58Z"/><circle class="cls-11" cx="138.29" cy="45.53" r="3.62"/><path class="cls-6" d="M136.54,55.43h-.26a4.34,4.34,0,0,1-2.63-7.58.66.66,0,0,1,.88,1,3,3,0,0,0-1,2.08,3.07,3.07,0,0,0,.76,2.18,3,3,0,0,0,2.08,1,3,3,0,0,0,2.43-5,.66.66,0,1,1,1-.88,4.33,4.33,0,0,1-3.24,7.22Z"/><path id="_Clipping_Path_" data-name="&lt;Clipping Path&gt;" class="cls-12" d="M139.58,44.16c-.31,7.77-6.53,16.7-14.62,16.7s-14.34-8.93-14.65-16.7c-.35-8.6,3.44-18.27,14.64-18.27S139.93,35.56,139.58,44.16Z"/><path class="cls-8" d="M125.1,22.21c-8.16,0-14.94,6.79-16.38,15.76h32.77C140.05,29,133.26,22.21,125.1,22.21Z"/><path class="cls-8" d="M141,34.09c2.05,5.69,1.48,8,.53,9a6.7,6.7,0,0,0-1.43,1.65,6.87,6.87,0,0,0-.8,3.78c.09,1.47.46,1.47.46,2.52,0,1.44-1,2-1.64,3.46a8.14,8.14,0,0,0-.55,4.82c-.07-.45-.58-1-.74-1.5a7,7,0,0,1-.4-1.8A8.22,8.22,0,0,1,137,52.4c.45-1.23.12-2.06-.07-3.27a8.64,8.64,0,0,1,.37-3,6.49,6.49,0,0,0-1.26-4.82,9,9,0,0,1-.36-5.82Z"/><path class="cls-8" d="M109.14,34.09c-2,5.69-1.49,8-.53,9A6.7,6.7,0,0,1,110,44.71a6.93,6.93,0,0,1,.79,3.78c-.09,1.47-.46,1.47-.46,2.52,0,1.44.95,2,1.64,3.46a8,8,0,0,1,.55,4.82,13.11,13.11,0,0,1,.75-1.5,7.44,7.44,0,0,0,.4-1.8,8.23,8.23,0,0,0-.64-3.59c-.45-1.23-.11-2.06.07-3.27a8.88,8.88,0,0,0-.36-3A6.44,6.44,0,0,1,114,41.28a9.07,9.07,0,0,0,.35-5.82Z"/></g><path class="cls-13" d="M124.82,12.15A33.64,33.64,0,1,1,91.18,45.79a33.63,33.63,0,0,1,33.64-33.64m0-2.37a36,36,0,1,0,36,36,36,36,0,0,0-36-36Z"/><path id="_Polygon_3" data-name="&lt;Polygon&gt;" class="cls-2" d="M75,46.3v-.69a32.9,32.9,0,0,0-16.46-28.5L58,16.76a32.9,32.9,0,0,0-32.91,0l-.6.35A32.91,32.91,0,0,0,8,45.61v.69A32.91,32.91,0,0,0,24.44,74.8l.6.34a32.9,32.9,0,0,0,32.91,0l.59-.34A32.9,32.9,0,0,0,75,46.3Z"/><g class="cls-14"><path class="cls-15" d="M23.82,34.35c-.57,1.09-4.58,9.17-.74,18.12A21.27,21.27,0,0,0,35,63.81a20.9,20.9,0,0,0,14,0A21.62,21.62,0,0,0,61.19,52.38c3.83-8.69.37-16.71-.23-18L42.27,29.13Z"/><path class="cls-16" d="M52.55,66.39l-10.27-.53L32,66.39a1.23,1.23,0,0,0-.55.18l-9.31,6.16a4.4,4.4,0,0,0-.41.31A33.5,33.5,0,0,0,62,72.46L53.1,66.57A1.16,1.16,0,0,0,52.55,66.39Z"/><path class="cls-17" d="M51.93,66.83c-.22.32-4.16,5.55-10.64,5A12.39,12.39,0,0,1,32.63,67a7,7,0,0,0,2.63-4,7.4,7.4,0,0,0-1.59-6.18H50.08c-.11.15-2.52,3.5-1,6.95A6.55,6.55,0,0,0,51.93,66.83Z"/><circle class="cls-18" cx="28.83" cy="45.97" r="3.62"/><circle class="cls-19" cx="55.64" cy="45.97" r="3.62"/><path class="cls-15" d="M29.78,38.69c0,1.67-.05,3.26-.13,4.79s-.1,1.28-.17,2.73c-.22,4.07,0,5.12-.88,6.1-.55.63-1.42,1.1-1.77.86s.17-1.2.37-2.64a17.81,17.81,0,0,0-.77-7.43,6.29,6.29,0,0,1-.5-2.47c0-.64.09-2,1.07-2.54A2.56,2.56,0,0,1,29.78,38.69Z"/><path class="cls-15" d="M57.56,38.69c0,1.67-.05,3.26-.12,4.79s-.1,1.28-.18,2.73c-.21,4.07,0,5.12-.87,6.1-.55.63-1.43,1.1-1.77.86s.16-1.2.37-2.64a18,18,0,0,0-.77-7.43,6,6,0,0,1-.5-2.47c0-.64.09-2,1.07-2.54A2.54,2.54,0,0,1,57.56,38.69Z"/><path id="_Clipping_Path_2" data-name="&lt;Clipping Path&gt;" class="cls-20" d="M56.93,44.61c-.31,7.77-8.39,16.71-14.64,16.71S28,52.38,27.63,44.61C27.29,36,33.75,26.32,42.28,26.32S57.28,36,56.93,44.61Z"/><circle class="cls-2" cx="26.69" cy="47.98" r="0.41"/><circle class="cls-2" cx="57.97" cy="47.98" r="0.41"/><path class="cls-15" d="M31.8,19.91a18.74,18.74,0,0,1,26,5.15A25.07,25.07,0,0,1,61,34.35c.13.85.12,1.85.16,2.53-10.27.49-16.55.58-18.84-6.87-3.87,7.8-10.33,7.71-18.76,6.88C23.86,31.25,26.74,23.29,31.8,19.91Z"/></g><path class="cls-13" d="M41.49,12.45A33.51,33.51,0,1,1,8,46a33.5,33.5,0,0,1,33.5-33.5m0-2.36A35.87,35.87,0,1,0,77.36,46,35.9,35.9,0,0,0,41.49,10.09Z"/><circle class="cls-3" cx="208.27" cy="45.97" r="33.19"/><g class="cls-21"><path class="cls-22" d="M228.84,72l-7.48-4.17a1.33,1.33,0,0,0-.67-.22L208.27,67l-12.42.65a1.27,1.27,0,0,0-.66.22L187.7,72a33.16,33.16,0,0,0,41.14,0Z"/><path class="cls-23" d="M219.94,68.92c-.27.38-5,6.7-12.87,6.09a15,15,0,0,1-10.47-5.88,8.63,8.63,0,0,0,3.18-4.82,9,9,0,0,0-1.93-7.48H217.7c-.13.19-3,4.24-1.21,8.41A8,8,0,0,0,219.94,68.92Z"/><path class="cls-24" d="M190.85,39c0-.69.61-1.32.72-2s-.25-1.46-.06-2.12.9-1.14,1.16-1.78.08-1.47.41-2.08,1.12-.91,1.51-1.48.4-1.42.85-1.94,1.3-.65,1.81-1.11.71-1.3,1.26-1.71,1.41-.33,2-.67,1-1.09,1.63-1.35,1.45,0,2.12-.15,1.23-.81,1.92-.9,1.38.39,2.08.39,1.41-.48,2.09-.39,1.26.73,1.91.9,1.49-.1,2.12.15,1,1,1.63,1.36,1.46.26,2,.66.76,1.24,1.26,1.71,1.36.59,1.81,1.11.46,1.38.85,1.94,1.19.88,1.51,1.48.16,1.45.41,2.08,1,1.12,1.16,1.78-.17,1.44-.06,2.12.69,1.3.72,2-.5,1.44-.56,2.16.34,1.52.2,2.23-.84,1.27-1.07,2,0,1.55-.33,2.21-1.11,1-1.49,1.66-.38,1.51-.82,2.08-1.32.76-1.84,1.28-.71,1.38-1.28,1.82-1.46.43-2.09.8-1,1.17-1.69,1.45-1.52,0-2.22.24-1.3.85-2,.95-1.46-.37-2.2-.37-1.5.46-2.2.37-1.33-.76-2-.95-1.55,0-2.22-.24-1.07-1.08-1.69-1.45-1.52-.35-2.09-.8-.77-1.31-1.28-1.83-1.38-.7-1.83-1.27-.45-1.46-.83-2.08-1.18-1-1.49-1.66-.1-1.53-.33-2.21-.92-1.25-1.07-2,.26-1.51.2-2.23S190.82,39.69,190.85,39Z"/><ellipse class="cls-25" cx="194.15" cy="46.39" rx="3.44" ry="4.28" transform="translate(-5.45 48.98) rotate(-14.18)"/><ellipse class="cls-26" cx="222.57" cy="46.39" rx="4.28" ry="3.44" transform="translate(123.07 250.81) rotate(-75.82)"/><path id="_Clipping_Path_3" data-name="&lt;Clipping Path&gt;" class="cls-27" d="M208.24,24.73a16.84,16.84,0,0,1,12.23,5.69,17.36,17.36,0,0,1,4,12.79c-.25,3.23-1.55,5.8-4.05,11a70.76,70.76,0,0,1-3.83,6.94,4.06,4.06,0,0,1-1.62,1.48,13.77,13.77,0,0,1-13.4,0,4.06,4.06,0,0,1-1.62-1.48,70.76,70.76,0,0,1-3.83-6.94c-2.5-5.19-3.8-7.76-4.05-11a17.36,17.36,0,0,1,4-12.79A16.84,16.84,0,0,1,208.24,24.73Z"/><path class="cls-24" d="M207.89,33.5a13.38,13.38,0,0,0,2.9.16c1-.25,1.72-1.11,2.52-1.47,1-.45,2.05-.43,2.81-.76,1.07-.46,2-1.09,2.77-.52.53.39.32,1.2.43,1.88s.65,1.08.74,1.79-.33,1.29-.13,2,.89.91,1.23,1.51.12,1.19.43,1.59,1.08.44,1.44.78.47,1.11.88,1.39,1,.12,1.45.35a11.47,11.47,0,0,0,0-4.14A22.85,22.85,0,0,0,223.73,34c-.51-1.27-.74-2.83-1.67-4.07s-2.19-1.8-3.42-2.75a18.29,18.29,0,0,0-3-2.43c-1.24-.56-2.63-.42-3.79-.65a20.83,20.83,0,0,0-3.75-.84,9.48,9.48,0,0,0-3.7,1,9.17,9.17,0,0,0-3.53.83,23.23,23.23,0,0,0-2.72,2.41c-.87.7-2.12,1.16-2.92,2.16s-.94,2.16-1.51,3.3c-.37.75-1.16,1.29-1.4,2s0,1.71-.09,2.44-.77,1.59-.81,2.31a9.2,9.2,0,0,0,.41,2.16c.43-.33.94-.29,1.38-.73s.4-1.18.77-1.66,1.11-.64,1.41-1.17,0-1.24.24-1.82.79-.73.87-1.12-.36-1-.32-1.39.6-.86.67-1.24-.2-1.08.17-1.39c.7-.59,1.65,0,2.73.41.75.29,1.8.22,2.78.62.8.33,1.52,1.15,2.5,1.37A13.64,13.64,0,0,0,207.89,33.5Z"/><path class="cls-24" d="M223.85,39.6l-.92,4.08a2.6,2.6,0,0,0,.92,2.66h0A30.67,30.67,0,0,0,225,42.69C225.22,41.51,223.85,39.6,223.85,39.6Z"/><path class="cls-24" d="M192.53,39.6l.87,4.08a2.72,2.72,0,0,1-.87,2.66h0a30.72,30.72,0,0,1-1.09-3.65C191.24,41.51,192.53,39.6,192.53,39.6Z"/></g><path class="cls-13" d="M208.27,12.78A33.19,33.19,0,1,1,175.08,46a33.19,33.19,0,0,1,33.19-33.19m0-2.33A35.52,35.52,0,1,0,243.79,46a35.55,35.55,0,0,0-35.52-35.52Z"/><path id="_Polygon_4" data-name="&lt;Polygon&gt;" class="cls-4" d="M159.86,9.13l10.08,17.46a2.3,2.3,0,0,1-2,3.46H147.78a2.3,2.3,0,0,1-2-3.46L155.87,9.13A2.3,2.3,0,0,1,159.86,9.13Z"/><path class="cls-13" d="M158.71,21.81l.44-6.73a1.4,1.4,0,0,0-1.39-1.49h0a1.39,1.39,0,0,0-1.39,1.49l.43,6.73a1,1,0,0,0,1,.89h0A1,1,0,0,0,158.71,21.81Z"/><path class="cls-13" d="M156.31,25.38a1.44,1.44,0,0,0,1.58,1.45,1.47,1.47,0,0,0-.14-2.93A1.47,1.47,0,0,0,156.31,25.38Z"/><circle class="cls-13" cx="74.95" cy="22.59" r="10.44"/><circle class="cls-13" cx="241.37" cy="23.33" r="10.44"/><path class="cls-28" d="M253.3,25a12.6,12.6,0,1,1-10.09-14.7A12.61,12.61,0,0,1,253.3,25Zm-14.69,3.47,10.12-7.83a.52.52,0,0,0,.1-.74h0l-1.73-2.23a.53.53,0,0,0-.74-.09h0l-7.48,5.78-2.27-2.92a.54.54,0,0,0-.75-.09h0l-2.23,1.73a.53.53,0,0,0-.09.74h0l4.33,5.56a.53.53,0,0,0,.74.09Z"/><path class="cls-28" d="M86.88,25.6A12.6,12.6,0,1,1,76.79,10.91,12.61,12.61,0,0,1,86.88,25.6ZM72.19,29.08l10.12-7.83a.53.53,0,0,0,.1-.75h0l-1.73-2.23a.53.53,0,0,0-.74-.1h0L72.46,24,70.19,21a.54.54,0,0,0-.75-.09h0l-2.23,1.72a.54.54,0,0,0-.09.75h0L71.45,29a.53.53,0,0,0,.74.1Z"/></svg>