<?xml version="1.0" encoding="utf-8"?>
<!-- Generator: Adobe Illustrator 23.0.2, SVG Export Plug-In . SVG Version: 6.00 Build 0)  -->
<svg version="1.1" id="CMYK_-_logo" xmlns="http://www.w3.org/2000/svg" xmlns:xlink="http://www.w3.org/1999/xlink" x="0px"
	 y="0px" viewBox="0 0 716.1 132" style="enable-background:new 0 0 716.1 132;" xml:space="preserve">
<style type="text/css">
	.st0{fill:#243858;}
	.st1{fill:#515F79;}
</style>
<g>
	<g>
		<path class="st0" d="M258,104l-20.2-42.3c-4.8-10-9.8-21.4-11.5-26.7l-0.4,0.4c0.7,7.6,0.8,17.1,0.9,25l0.5,43.6h-14.7V13.9h16.9
			l21.9,44c4.2,8.3,8.1,19,9.2,23.2l0.4-0.4c-0.4-4.6-1.3-17.5-1.3-25.7l-0.3-41.2h14.2V104H258z"/>
		<path class="st0" d="M300.5,74.9v1c0,9.1,3.4,18.8,16.3,18.8c6.1,0,11.5-2.2,16.4-6.5l5.6,8.7c-6.9,5.9-14.8,8.7-23.7,8.7
			c-18.6,0-30.3-13.4-30.3-34.5c0-11.6,2.5-19.3,8.2-25.8c5.3-6.1,11.9-8.9,20.2-8.9c6.5,0,12.5,1.7,18.1,6.8
			c5.7,5.2,8.6,13.3,8.6,28.7v3H300.5z M313.2,47.3c-8.1,0-12.5,6.4-12.5,17.1H325C325,53.7,320.3,47.3,313.2,47.3z"/>
		<path class="st0" d="M416.1,104.2h-13.4l-8.1-30.3c-2.1-7.8-4.3-18-4.3-18H390c0,0-1,6.5-4.3,18.6l-7.9,29.7h-13.4l-18-65.2
			l14.2-2l7.2,31.9c1.8,8.2,3.4,17.3,3.4,17.3h0.4c0,0,1.3-8.6,3.8-17.7l8.5-30.5h14.1l7.4,29.7c2.7,10.7,4.2,18.8,4.2,18.8h0.4
			c0,0,1.6-10,3.3-17.7l6.8-30.7h14.8L416.1,104.2z"/>
		<path class="st0" d="M518.2,104L510.3,90C504.1,79,499.9,72.7,495,67.8c-1.7-1.7-3-2.6-5.9-2.7V104h-14.7V13.9h27.5
			c20.2,0,29.3,11.7,29.3,25.8c0,12.9-8.3,24.7-22.4,24.7c3.3,1.7,9.2,10.4,13.9,18L536,104H518.2z M497.3,26h-8.2v28.5h7.7
			c7.8,0,12-1,14.7-3.8c2.5-2.5,4-6.2,4-10.9C515.5,30.7,510.6,26,497.3,26z"/>
		<path class="st0" d="M555.7,74.9v1c0,9.1,3.4,18.8,16.3,18.8c6.1,0,11.5-2.2,16.4-6.5l5.6,8.7c-6.9,5.9-14.8,8.7-23.7,8.7
			c-18.6,0-30.3-13.4-30.3-34.5c0-11.6,2.5-19.3,8.2-25.8c5.3-6.1,11.9-8.9,20.2-8.9c6.5,0,12.5,1.7,18.1,6.8
			c5.7,5.2,8.6,13.3,8.6,28.7v3H555.7z M568.3,47.3c-8.1,0-12.5,6.4-12.5,17.1h24.4C580.1,53.7,575.5,47.3,568.3,47.3z"/>
		<path class="st0" d="M621.8,105.4c-14.5,0-14.5-13-14.5-18.6V30.7c0-9-0.4-13.8-1.3-19.3l14.7-3.3c1,4,1.2,9.5,1.2,18.1v55.9
			c0,8.9,0.4,10.3,1.4,11.9c0.8,1.2,3,1.8,4.7,1l2.3,8.9C627.8,104.9,625.1,105.4,621.8,105.4z"/>
		<path class="st0" d="M646.7,28.3c-5.2,0-9.2-4.3-9.2-9.5c0-5.3,4.2-9.6,9.5-9.6c5.1,0,9.4,4.2,9.4,9.6
			C656.3,24,652,28.3,646.7,28.3z M639.5,104V39.1l14.5-2.6V104H639.5z"/>
		<path class="st0" d="M695,105.7c-18,0-28-12.6-28-33.9c0-24,14.3-35.4,29-35.4c7.2,0,12.4,1.7,18.2,7.2l-7.2,9.5
			c-3.9-3.5-7.3-5.1-11.1-5.1c-4.6,0-8.3,2.3-10.4,6.6c-2,4-2.7,10.2-2.7,18.4c0,9,1.4,14.7,4.4,18c2.1,2.3,5.2,3.8,8.7,3.8
			c4.6,0,9-2.2,13.3-6.5l6.8,8.7C710.1,102.9,703.9,105.7,695,105.7z"/>
	</g>
	<path class="st0" d="M161.8,48.5C154.2,13.4,112-7.3,67.7,2.4C23.3,12-6.4,48.3,1.2,83.5c7.6,35.1,49.8,55.8,94.1,46.2
		C139.7,120,169.5,83.7,161.8,48.5z M81.5,98.4c-17.9,0-32.4-14.5-32.4-32.4c0-17.9,14.5-32.4,32.4-32.4c17.9,0,32.4,14.5,32.4,32.4
		C113.9,83.9,99.4,98.4,81.5,98.4z"/>
	<path class="st1" d="M88.7,20.7c-25.7,0-46.5,20.8-46.5,46.5c0,25.7,20.8,46.5,46.5,46.5c25.7,0,46.5-20.8,46.5-46.5
		C135.2,41.5,114.4,20.7,88.7,20.7z M81.5,94.3c-15.6,0-28.3-12.7-28.3-28.3c0-15.6,12.7-28.3,28.3-28.3c15.6,0,28.3,12.7,28.3,28.3
		C109.8,81.6,97.1,94.3,81.5,94.3z"/>
</g>
</svg>
