<?xml version="1.0" encoding="utf-8"?>
<!-- Generator: Adobe Illustrator 23.0.2, SVG Export Plug-In . SVG Version: 6.00 Build 0)  -->
<svg version="1.1" id="Layer_1" xmlns="http://www.w3.org/2000/svg" xmlns:xlink="http://www.w3.org/1999/xlink" x="0px" y="0px"
	 viewBox="0 0 403.2 145.7" style="enable-background:new 0 0 403.2 145.7;" xml:space="preserve">
<style type="text/css">
	.st0{fill:#253858;}
</style>
<g>
	<path class="st0" d="M148.2,79.8c-4.9,0-9.8,3.7-13,7.9v-1.2c0-4.1-2.5-6.7-6.4-6.7c-3.9,0-6.4,2.6-6.4,6.7V139
		c0,4.1,2.5,6.7,6.4,6.7c3.9,0,6.4-2.6,6.4-6.7v-29.5c0-12.8,8.7-15.7,12.5-16.4c6.1-1.2,7.4-4.4,7.4-6.8
		C155.2,82.5,152.3,79.8,148.2,79.8z"/>
	<path class="st0" d="M212.5,111.3c0-15.2-9.8-31.4-27.9-31.4c-19.1,0-29.1,16.6-29.1,32.9c0,15.2,7.8,32.9,29.7,32.9
		c11.9,0,26.1-7.6,26.1-14c0-3.8-2.6-5.8-5-5.8c-1.8,0-3.2,1.1-5.1,2.6c-3.1,2.4-7.4,5.8-15.9,5.8c-9.8,0-16.5-6.5-17-16.4h37.3
		C210.4,118,212.5,115.9,212.5,111.3z M168.3,107.8c0.4-5.2,2.9-16.6,15.4-16.6c0.3,0,0.5,0,0.8,0c10.5,0,14.7,9.5,15.1,16.6H168.3z
		"/>
	<path class="st0" d="M266.7,52.6c-3.9,0-6.4,2.6-6.4,6.7v27c-3.4-3.4-8.7-6.5-15.5-6.5c-18.2,0-27.7,16.6-27.7,32.9
		c0,16.4,9.5,32.9,27.7,32.9c6.9,0,12.1-2,15.6-6c0.3,3.7,2.7,6,6.4,6c3.9,0,6.4-2.6,6.4-6.7V59.3C273.1,55.2,270.6,52.6,266.7,52.6
		z M245.7,134.4c-11.6,0-15.8-11.6-15.8-21.6s4.1-21.6,15.8-21.6c11.6,0,15.8,11.6,15.8,21.6S257.3,134.4,245.7,134.4z"/>
	<path class="st0" d="M331.5,52.6c-3.9,0-6.4,2.6-6.4,6.7v27c-3.4-3.4-8.7-6.5-15.5-6.5c-18.2,0-27.7,16.6-27.7,32.9
		c0,16.4,9.5,32.9,27.7,32.9c6.9,0,12.1-2,15.6-6c0.3,3.7,2.7,6,6.4,6c3.9,0,6.4-2.6,6.4-6.7V59.3C337.9,55.2,335.4,52.6,331.5,52.6
		z M310.4,134.4c-11.6,0-15.8-11.6-15.8-21.6s4.1-21.6,15.8-21.6c11.6,0,15.8,11.6,15.8,21.6S322.1,134.4,310.4,134.4z"/>
	<path class="st0" d="M355.8,52.6c-6.2,0-11.3,5.1-11.3,11.3c0,6.2,5.1,11.3,11.3,11.3c6.2,0,11.3-5.1,11.3-11.3
		C367.1,57.7,362,52.6,355.8,52.6z M355.8,70.2c-3.5,0-6.3-2.8-6.3-6.3c0-3.5,2.8-6.3,6.3-6.3s6.3,2.8,6.3,6.3
		C362.1,67.4,359.3,70.2,355.8,70.2z"/>
	<path class="st0" d="M355.8,79.8c-3.9,0-6.4,2.6-6.4,6.7V139c0,4.1,2.5,6.7,6.4,6.7c3.9,0,6.4-2.6,6.4-6.7V86.6
		C362.1,82.5,359.6,79.8,355.8,79.8z"/>
	<path class="st0" d="M396.8,80.5h-2.9V68.4c0-4.1-2.5-6.7-6.4-6.7c-3.9,0-6.4,2.6-6.4,6.7v12.2h-2.9c-4,0-6.4,2.1-6.4,5.7
		c0,3.6,2.4,5.7,6.4,5.7h2.9V139c0,4.1,2.5,6.7,6.4,6.7c3.9,0,6.4-2.6,6.4-6.7V91.9h2.9c4,0,6.4-2.1,6.4-5.7
		C403.2,82.7,400.8,80.5,396.8,80.5z"/>
	<path class="st0" d="M91.7,30.6c-2.9,0-5.7,1.1-7.9,3c-7.8-5-18.1-8.2-29.5-8.6l6.8-19.3l17,4.1c0,5.4,4.4,9.7,9.7,9.7
		c5.4,0,9.8-4.4,9.8-9.8c0-5.4-4.4-9.8-9.8-9.8c-4.1,0-7.6,2.5-9,6.1L58.8,1.3L50.4,25c-11.9,0.2-22.6,3.4-30.7,8.6
		c-2.2-1.9-4.9-2.9-7.8-2.9C5.4,30.6,0,36,0,42.6c0,4.1,2.1,7.8,5.5,10c-0.2,1.2-0.3,2.4-0.3,3.6c0,11.7,9.6,21.9,23.9,27.3
		c-7.7,4.8-12.6,11.9-12.6,19.9c0,8.8,5.9,16.9,15.8,21.7l0.1-0.2c0.4,1.9,0.9,3.6,1.5,5.3h-3.9c-3.4,0-6.2,1.1-8.3,3.3
		c-3.8,4-3.5,10.1-3.5,10.4l0.1,1.8h66.7l0.1-1.8c0-0.3,0.2-6.6-3.6-10.5c-2-2-4.6-3.1-7.8-3.1h-4c0.7-1.9,1.2-3.9,1.7-6l0.2,0.5
		c9.3-4.8,14.9-12.8,14.9-21.3c0-7.8-4.7-14.8-12.1-19.6c0-0.1,0-0.2,0-0.3c14.3-5.3,24-15.6,24-27.3c0-1.2-0.1-2.4-0.3-3.5
		c3.5-2.2,5.6-6,5.6-10.1C103.6,36,98.3,30.6,91.7,30.6z M87.9,3.8c3.3,0,6,2.7,6,6c0,3.3-2.7,6-6,6s-6-2.7-6-6
		C81.9,6.4,84.6,3.8,87.9,3.8z M3.8,42.6c0-4.5,3.7-8.2,8.2-8.2c1.7,0,3.2,0.5,4.6,1.4c-4.7,3.7-8.2,8.1-10,12.9
		C4.8,47.2,3.8,44.9,3.8,42.6z M20.2,103.4c0-6.1,3.5-11.7,9.2-15.7c0.1,12.2,0.5,23.4,2.1,32.7C24.3,116.2,20.2,110,20.2,103.4z
		 M21.9,141.8c0.2-1.7,0.8-4.1,2.4-5.8c1.3-1.4,3.2-2.1,5.6-2.1h5.4c1.5,3.3,3.5,6,5.9,7.9H21.9z M73.6,133.9c2.1,0,3.8,0.6,5,1.9
		c1.7,1.7,2.3,4.3,2.5,6H62.2c2.4-1.9,4.3-4.6,5.9-7.9H73.6z M51.8,141.6c-16.7,0-18.6-26.2-18.7-56.2c0.3-0.1,0.5-0.2,0.8-0.4
		c5.5,1.5,11.5,2.4,17.9,2.4c6.2,0,12.1-0.8,17.5-2.3c0.5,0.2,0.9,0.5,1.4,0.7C70.4,120.4,66.9,141.6,51.8,141.6z M82.7,103.4
		c0,6.3-3.9,12.4-10.6,16.6c1.6-9.3,2.1-20.3,2.2-31.7C79.5,92.3,82.7,97.6,82.7,103.4z M51.7,83.7c-23.6,0-42.8-12.3-42.8-27.5
		c0-15.2,19.2-27.5,42.8-27.5S94.5,41,94.5,56.2C94.5,71.4,75.3,83.7,51.7,83.7z M97,48.8c-1.8-4.9-5.2-9.3-9.9-13
		c1.4-1,3-1.5,4.7-1.5c4.5,0,8.2,3.7,8.2,8.2C99.9,45,98.8,47.3,97,48.8z"/>
	<path class="st0" d="M44.3,50.7c0-4-3.3-7.3-7.3-7.3c-4.1,0-7.3,3.3-7.3,7.3c0,4.1,3.3,7.3,7.3,7.3C41,58,44.3,54.7,44.3,50.7z"/>
	<path class="st0" d="M67.6,43.4c-4.1,0-7.3,3.3-7.3,7.3c0,4.1,3.3,7.3,7.3,7.3c4.1,0,7.3-3.3,7.3-7.3
		C74.9,46.6,71.6,43.4,67.6,43.4z"/>
	<path class="st0" d="M66.3,67.9c0,0-4.5,4.4-14.7,4.4c-10,0-14-4.2-14.1-4.4c-0.7-0.8-1.8-0.9-2.6-0.2c-0.8,0.7-0.9,1.9-0.2,2.6
		c0.2,0.2,5,5.7,16.9,5.7c11.9,0,17.2-5.4,17.4-5.6c0.7-0.7,0.7-1.9-0.1-2.6C68.2,67.2,67,67.2,66.3,67.9z"/>
</g>
</svg>
