<?xml version="1.0" encoding="utf-8"?>
<!-- Generator: Adobe Illustrator 23.0.2, SVG Export Plug-In . SVG Version: 6.00 Build 0)  -->
<svg version="1.1" id="Layer_1" xmlns="http://www.w3.org/2000/svg" xmlns:xlink="http://www.w3.org/1999/xlink" x="0px" y="0px"
	 viewBox="0 0 829 120.1" style="enable-background:new 0 0 829 120.1;" xml:space="preserve">
<style type="text/css">
	.st0{fill-rule:evenodd;clip-rule:evenodd;fill:#253858;}
	.st1{filter:url(#Adobe_OpacityMaskFilter);}
	.st2{fill-rule:evenodd;clip-rule:evenodd;fill:#FFFFFF;}
	.st3{mask:url(#mask-2_1_);fill-rule:evenodd;clip-rule:evenodd;fill:#253858;}
</style>
<title>squarespace-logo-horizontal-black</title>
<desc>Created with Sketch.</desc>
<g id="squarespace-logo-horizontal-black">
	<g id="squarespace-logo" transform="translate(62.000000, 47.000000)">
		<g>
			<path id="Fill-1" class="st0" d="M-31.2,16.6l46.5-47.1c3.2-3.2,7.4-5,11.8-5c4.5,0,8.7,1.8,11.8,5l3.6,3.7l7.2-7.3l-3.6-3.7
				c-5.1-5.2-11.9-8-19.1-8c-7.2,0-14,2.8-19.1,8L-38.5,9.2L-31.2,16.6z"/>
			<path id="Fill-3" class="st0" d="M31-14.9l-7.3-7.3l-46.7,47c-6.6,6.6-17.2,6.6-23.8,0c-6.6-6.6-6.6-17.3,0-23.9l40.3-40.5
				l-7.3-7.3L-54.1-6.5c-10.6,10.6-10.6,27.9,0,38.6c5.1,5.1,11.9,8,19.2,8c7.3,0,14.1-2.8,19.2-8L31-14.9z"/>
			<path id="Fill-5" class="st0" d="M77.2-6.1c-5.1-5.1-11.9-8-19.2-8c-7.3,0-14.1,2.8-19.2,8l-46.7,47l7.3,7.3l46.7-47
				c6.6-6.6,17.2-6.6,23.8,0c3.2,3.2,4.9,7.4,4.9,12c0,4.5-1.7,8.8-4.9,12L29.6,65.7l7.3,7.3l40.3-40.5C87.8,21.9,87.8,4.6,77.2-6.1
				"/>
			<path id="Fill-7" class="st0" d="M54.3,9.5L7.9,56.6c-6.5,6.6-17.2,6.6-23.7,0l-3.6-3.7l-7.2,7.3l3.6,3.7c5.1,5.2,11.9,8,19.1,8
				c7.2,0,14-2.8,19.1-8l46.5-47.1L54.3,9.5z"/>
			<path id="Fill-9" class="st0" d="M128.1,25.3c0.6,3,2,5.4,4.2,7c2.2,1.7,5.1,2.5,8.7,2.5c3.5,0,6.3-0.8,8.2-2.5
				c1.9-1.7,2.9-3.9,2.9-6.6c0-1.3-0.3-2.5-0.8-3.4c-0.5-0.9-1.2-1.7-2.2-2.3c-0.9-0.6-2.1-1.2-3.4-1.6c-1.4-0.4-2.9-0.9-4.6-1.4
				l-4.4-1.3c-2.6-0.7-5-1.6-7-2.6c-2.1-1-3.8-2.2-5.3-3.6c-1.5-1.4-2.6-3-3.4-4.8c-0.8-1.8-1.1-3.9-1.1-6.3c0-2.5,0.5-4.8,1.5-6.9
				c1-2.1,2.4-3.9,4.2-5.4c1.8-1.5,4-2.7,6.5-3.5c2.6-0.9,5.4-1.3,8.7-1.3c6.1,0,10.8,1.5,14.4,4.4c3.5,2.9,5.6,6.8,6.2,11.7
				l-9.8,0.8c-0.6-2.5-1.8-4.4-3.6-5.8s-4.3-2.1-7.5-2.1c-3,0-5.3,0.7-7,2.1c-1.7,1.4-2.5,3.2-2.5,5.5c0,1.3,0.2,2.3,0.7,3.2
				c0.5,0.9,1.2,1.6,2.1,2.3c0.9,0.6,2.1,1.2,3.4,1.7c1.3,0.5,2.8,1,4.5,1.6l4.2,1.3c2.6,0.8,5,1.7,7.1,2.6c2.1,0.9,3.9,2,5.4,3.3
				c1.5,1.3,2.6,2.8,3.4,4.6c0.8,1.8,1.2,4,1.2,6.6c0,2.8-0.5,5.3-1.6,7.6c-1.1,2.3-2.6,4.3-4.6,5.9c-2,1.6-4.3,2.9-7,3.8
				c-2.7,0.9-5.7,1.3-9,1.3c-6.1,0-11.1-1.4-15.1-4.3c-4-2.9-6.5-7.3-7.4-13.1L128.1,25.3z"/>
			<path id="Fill-11" class="st0" d="M205-8.6c-2.9,0-5.6,0.6-7.9,1.7c-2.3,1.1-4.3,2.6-5.9,4.6c-1.6,2-2.8,4.3-3.7,7
				c-0.8,2.7-1.3,5.6-1.3,8.7c0,3.1,0.4,6.1,1.3,8.8c0.9,2.7,2.1,5.1,3.7,7c1.6,2,3.6,3.5,5.9,4.7c2.3,1.1,4.9,1.7,7.9,1.7
				s5.6-0.5,7.9-1.6c2.3-1.1,4.3-2.6,5.9-4.5c1.6-1.9,2.8-4.3,3.7-7c0.9-2.7,1.3-5.7,1.3-9c0-3.2-0.4-6.2-1.3-8.9
				c-0.9-2.7-2.1-5-3.7-7c-1.6-1.9-3.6-3.5-5.9-4.6C210.6-8.1,208-8.6,205-8.6 M205.1-17.6c4.4,0,8.4,0.8,12.1,2.3
				c3.6,1.5,6.8,3.7,9.3,6.4c2.6,2.7,4.5,6,6,9.8c1.4,3.8,2.1,8,2.1,12.5c0,4.7-0.7,9-2.2,12.7c-1.5,3.8-3.6,7.1-6.4,9.8l7.8,9.4
				v2.9h-10l-5.5-6.8c-1.9,0.9-4,1.6-6.1,2.1c-2.2,0.5-4.5,0.7-7,0.7c-4.5,0-8.6-0.8-12.2-2.3c-3.6-1.5-6.7-3.7-9.2-6.4
				c-2.5-2.7-4.5-6-5.9-9.8c-1.4-3.8-2.1-7.9-2.1-12.4c0-4.5,0.7-8.7,2.1-12.5c1.4-3.8,3.4-7.1,5.9-9.8c2.6-2.7,5.7-4.9,9.3-6.4
				C196.7-16.8,200.7-17.6,205.1-17.6"/>
			<path id="Fill-13" class="st0" d="M274.6,35c4.2,0,7.4-1.3,9.8-4c2.3-2.6,3.5-6.7,3.5-12.1v-36.5h10.3v36.8c0,4.3-0.5,8-1.6,11.1
				c-1.1,3.1-2.6,5.6-4.6,7.6c-2,2-4.5,3.4-7.4,4.3c-2.9,0.9-6.2,1.4-9.9,1.4c-3.7,0-7-0.5-9.9-1.4c-2.9-0.9-5.4-2.4-7.4-4.3
				c-2-2-3.6-4.5-4.6-7.6c-1.1-3.1-1.6-6.8-1.6-11.1v-36.8h10.3v36.5c0,5.4,1.2,9.5,3.5,12.1C267.2,33.7,270.4,35,274.6,35"/>
			<path id="Fill-15" class="st0" d="M327.6,16.8h19.6L344,7.5c-1.3-3.7-2.3-6.6-3.1-8.9c-0.8-2.3-1.5-4.3-2.1-6.1h-2.6
				c-0.3,0.9-0.7,1.9-1,2.8c-0.3,0.9-0.7,2-1.1,3.1c-0.4,1.1-0.9,2.5-1.4,3.9c-0.5,1.5-1.1,3.2-1.8,5.2L327.6,16.8z M308.8,39.6
				l21.1-56h15.7l20.9,56v2.9h-10.3l-6-16.8h-25.8l-6,16.8h-9.7V39.6z"/>
			<path id="Fill-17" class="st0" d="M389.6,10.5h8.9c3.9,0,7-0.7,9.3-2.2c2.3-1.4,3.4-3.8,3.4-7c0-3.3-1.2-5.6-3.4-6.9
				c-2.3-1.3-5.4-1.9-9.3-1.9h-8.9V10.5z M424.1,42.5h-9.9l-18-23.1h-6.6v23.1h-10.2v-58.9h19.1c3,0,5.9,0.2,8.6,0.6
				c2.7,0.4,5.2,1.4,7.3,2.8c4.6,3.1,7,7.7,7,13.8c0,2.7-0.4,5-1.2,7c-0.8,2-1.8,3.7-3.2,5.1c-1.3,1.4-2.8,2.5-4.6,3.4
				c-1.7,0.9-3.5,1.5-5.4,2l17,21.2V42.5z"/>
			<polygon id="Fill-19" class="st0" points="437.1,-16.4 475.3,-16.4 475.3,-7.4 447.2,-7.4 447.2,8 473.4,8 473.4,16.9 
				447.2,16.9 447.2,33.4 475.9,33.4 475.9,42.5 437.1,42.5 			"/>
			<path id="Fill-21" class="st0" d="M498.8,25.3c0.6,3,2,5.4,4.2,7c2.2,1.7,5.1,2.5,8.7,2.5c3.5,0,6.3-0.8,8.2-2.5
				c1.9-1.7,2.9-3.9,2.9-6.6c0-1.3-0.3-2.5-0.8-3.4c-0.5-0.9-1.2-1.7-2.2-2.3c-0.9-0.6-2.1-1.2-3.4-1.6c-1.4-0.4-2.9-0.9-4.6-1.4
				l-4.4-1.3c-2.6-0.7-5-1.6-7-2.6c-2.1-1-3.8-2.2-5.3-3.6c-1.5-1.4-2.6-3-3.4-4.8c-0.8-1.8-1.1-3.9-1.1-6.3c0-2.5,0.5-4.8,1.5-6.9
				c1-2.1,2.4-3.9,4.2-5.4c1.8-1.5,4-2.7,6.5-3.5c2.6-0.9,5.4-1.3,8.7-1.3c6.1,0,10.8,1.5,14.4,4.4c3.5,2.9,5.6,6.8,6.2,11.7
				l-9.8,0.8c-0.6-2.5-1.8-4.4-3.6-5.8c-1.8-1.4-4.3-2.1-7.5-2.1c-3,0-5.3,0.7-7,2.1c-1.7,1.4-2.5,3.2-2.5,5.5
				c0,1.3,0.2,2.3,0.7,3.2c0.5,0.9,1.2,1.6,2.1,2.3c0.9,0.6,2.1,1.2,3.4,1.7c1.3,0.5,2.8,1,4.5,1.6l4.2,1.3c2.6,0.8,5,1.7,7.1,2.6
				c2.1,0.9,3.9,2,5.4,3.3c1.5,1.3,2.6,2.8,3.4,4.6c0.8,1.8,1.2,4,1.2,6.6c0,2.8-0.5,5.3-1.6,7.6c-1.1,2.3-2.6,4.3-4.6,5.9
				c-2,1.6-4.3,2.9-7,3.8c-2.7,0.9-5.7,1.3-9,1.3c-6,0-11.1-1.4-15.1-4.3c-4-2.9-6.5-7.3-7.4-13.1L498.8,25.3z"/>
			<path id="Fill-23" class="st0" d="M559.3,11h10c1.8,0,3.5-0.1,5-0.4c1.5-0.3,2.9-0.8,4-1.5c1.1-0.7,2-1.7,2.7-2.8
				c0.6-1.2,1-2.7,1-4.4c0-1.8-0.3-3.3-1-4.5c-0.6-1.2-1.5-2.2-2.6-2.9c-1.1-0.7-2.4-1.2-4-1.5c-1.5-0.3-3.2-0.4-5-0.4h-10.2V11z
				 M548.9-16.4h21.9c4.1,0,7.5,0.5,10.2,1.4c2.8,0.9,5,2.2,6.7,3.9c1.7,1.6,2.9,3.6,3.7,5.8c0.7,2.2,1.1,4.6,1.1,7.2
				c0,3.1-0.5,5.7-1.5,8s-2.5,4.1-4.5,5.6c-1.9,1.5-4.3,2.6-7.1,3.3c-2.8,0.7-5.9,1.1-9.4,1.1h-10.6v22.6h-10.4V-16.4z"/>
			<path id="Fill-25" class="st0" d="M613.6,16.8h19.6L630,7.5c-1.3-3.7-2.3-6.6-3.1-8.9c-0.8-2.3-1.5-4.3-2.1-6.1h-2.6
				c-0.3,0.9-0.7,1.9-1,2.8c-0.3,0.9-0.7,2-1.1,3.1c-0.4,1.1-0.9,2.5-1.4,3.9c-0.5,1.5-1.1,3.2-1.8,5.2L613.6,16.8z M594.8,39.6
				l21.1-56h15.7l20.9,56v2.9h-10.3l-6-16.8h-25.8l-6,16.8h-9.7V39.6z"/>
			<path id="Fill-27" class="st0" d="M714.8,26.9c-0.9,2.3-2.2,4.5-3.7,6.5c-1.5,2-3.3,3.8-5.5,5.3c-2.1,1.5-4.6,2.7-7.5,3.6
				c-2.8,0.9-6,1.3-9.5,1.3c-4.4,0-8.4-0.8-12-2.3c-3.6-1.5-6.7-3.6-9.2-6.4c-2.5-2.7-4.5-5.9-5.9-9.7c-1.4-3.7-2.1-7.8-2.1-12.2
				c0-4.4,0.7-8.4,2.1-12.2c1.4-3.7,3.4-7,5.9-9.7c2.6-2.7,5.7-4.9,9.3-6.4c3.6-1.6,7.6-2.3,12.1-2.3c6.5,0,11.9,1.5,16.3,4.5
				c4.4,3,7.5,7,9.3,12L704,1c-1.4-3-3.4-5.4-6-7.1c-2.6-1.7-5.7-2.6-9.3-2.6c-2.9,0-5.5,0.6-7.8,1.7c-2.3,1.1-4.2,2.7-5.8,4.6
				c-1.6,2-2.8,4.3-3.6,6.9c-0.8,2.7-1.2,5.5-1.2,8.6c0,3.1,0.4,6,1.3,8.6c0.9,2.6,2.1,4.9,3.7,6.9c1.6,1.9,3.6,3.4,5.9,4.5
				c2.3,1.1,5,1.6,7.9,1.6c3.9,0,7-0.9,9.5-2.8c2.5-1.9,4.4-4.1,5.8-6.8L714.8,26.9z"/>
			<g id="Group-31" transform="translate(671.000000, 25.000000)">
				<g id="Clip-30">
				</g>
				<defs>
					<filter id="Adobe_OpacityMaskFilter" filterUnits="userSpaceOnUse" x="57.3" y="-42.1" width="39.1" height="59.4">
						<feColorMatrix  type="matrix" values="1 0 0 0 0  0 1 0 0 0  0 0 1 0 0  0 0 0 1 0"/>
					</filter>
				</defs>
				<mask maskUnits="userSpaceOnUse" x="57.3" y="-42.1" width="39.1" height="59.4" id="mask-2_1_">
					<g class="st1">
						<polygon id="path-1_1_" class="st2" points="57.3,-42.1 96.4,-42.1 96.4,17.3 57.3,17.3 						"/>
					</g>
				</mask>
				<polygon id="Fill-29" class="st3" points="57.3,-42.1 95.8,-42.1 95.8,-33 67.5,-33 67.5,-17.4 93.8,-17.4 93.8,-8.5 67.5,-8.5 
					67.5,8.2 96.4,8.2 96.4,17.3 57.3,17.3 				"/>
			</g>
		</g>
	</g>
</g>
</svg>
