<?xml version="1.0" encoding="utf-8"?>
<!-- Generator: Adobe Illustrator 23.0.1, SVG Export Plug-In . SVG Version: 6.00 Build 0)  -->
<svg version="1.1" id="Layer_1" xmlns="http://www.w3.org/2000/svg" xmlns:xlink="http://www.w3.org/1999/xlink" x="0px" y="0px"
	 viewBox="0 0 166.2 50" style="enable-background:new 0 0 166.2 50;" xml:space="preserve">
<style type="text/css">
	.st0{fill:#253858;}
</style>
<g>
	<path class="st0" d="M117.1,9.8h-8.8c-0.2,0-0.4,0.2-0.4,0.4v5.1c0,0.2,0.2,0.4,0.4,0.4h8.8c0.2,0,0.4-0.2,0.4-0.4v-5.1
		C117.6,10,117.4,9.8,117.1,9.8z M117,17.4h-17c-0.2,0-0.5,0.2-0.6,0.4l-2.2,8.3l-0.1,0.4l-2.6-8.9c-0.1-0.2-0.3-0.4-0.6-0.4h-6.6
		c-0.2,0-0.5,0.2-0.6,0.4l-2.5,8.3l-0.1,0.4L84,26.1L83,22l-1.1-4.1c-0.1-0.2-0.3-0.4-0.6-0.4H68v-7.2c0-0.2-0.3-0.5-0.6-0.4
		L59,12.5c-0.3,0.1-0.4,0.2-0.4,0.4v4.5h-2.2c-0.2,0-0.4,0.2-0.4,0.4v6.4c0,0.2,0.2,0.4,0.4,0.4h2.2v7.8c0,5.5,3,8.1,8.5,8.1
		c2.3,0,4.5-0.5,6-1.3v-6.6c0-0.3-0.3-0.4-0.5-0.4c-0.9,0.4-1.6,0.5-2.4,0.5c-1.5,0-2.3-0.6-2.3-2.3v-5.7h4.8c0.2,0,0.4-0.2,0.4-0.4
		v-5.4l6.3,20.9c0.1,0.2,0.3,0.4,0.6,0.4h7c0.2,0,0.5-0.2,0.6-0.4l3-9.3l1.5,4.8l1.4,4.4c0.1,0.2,0.3,0.4,0.6,0.4h7
		c0.2,0,0.5-0.2,0.6-0.4l6.4-21v21c0,0.2,0.2,0.4,0.4,0.4h8.5c0.2,0,0.4-0.2,0.4-0.4V17.9C117.4,17.6,117.2,17.4,117,17.4L117,17.4z
		 M128.2,9.8h-8.5c-0.2,0-0.4,0.2-0.4,0.4v29.5c0,0.2,0.2,0.4,0.4,0.4h8.5c0.2,0,0.4-0.2,0.4-0.4V10.2C128.6,10,128.4,9.8,128.2,9.8
		z M139.5,9.8h-8.8c-0.2,0-0.4,0.2-0.4,0.4v5.1c0,0.2,0.2,0.4,0.4,0.4h8.8c0.2,0,0.4-0.2,0.4-0.4v-5.1C140,10,139.8,9.8,139.5,9.8z
		 M139.4,17.4h-8.5c-0.2,0-0.4,0.2-0.4,0.4v21.9c0,0.2,0.2,0.4,0.4,0.4h8.5c0.2,0,0.4-0.2,0.4-0.4V17.9
		C139.8,17.6,139.6,17.4,139.4,17.4z M153.5,16.9c-7.5,0-12.8,5.5-12.8,11.9v0.1c0,6.4,5.3,11.8,12.7,11.8c7.5,0,12.8-5.5,12.8-11.9
		v-0.1C166.2,22.3,160.9,16.9,153.5,16.9z M157.1,28.8c0,2.2-1.5,3.9-3.6,3.9s-3.7-1.8-3.7-4v-0.1c0-2.2,1.5-3.9,3.6-3.9
		S157.1,26.5,157.1,28.8z M25,0C11.2,0,0,11.2,0,25s11.2,25,25,25s25-11.2,25-25S38.8,0,25,0z M25,43.4C14.8,43.4,6.6,35.2,6.6,25
		S14.8,6.6,25,6.6S43.4,14.8,43.4,25S35.2,43.4,25,43.4z"/>
	<circle class="st0" cx="31.2" cy="18.8" r="5.2"/>
	<circle class="st0" cx="31.2" cy="31.2" r="5.2"/>
	<circle class="st0" cx="18.8" cy="31.2" r="5.2"/>
	<circle class="st0" cx="18.8" cy="18.8" r="5.2"/>
</g>
</svg>
